<?xml version="1.0" encoding="UTF-8"?>
<svg id="Camada_2" data-name="Camada 2" xmlns="http://www.w3.org/2000/svg" viewBox="0 0 568.83 107.19">
  <defs>
    <style>
      .cls-1 {
        fill: #7448ff;
      }
    </style>
  </defs>
  <g id="Camada_1-2" data-name="Camada 1">
    <g>
      <path class="cls-1" d="m102.35,37.74s-27.7-21.71-35.3-27.47C59.46,4.52,50.57.08,40.32.06L5.99,0H0s0,5.98,0,5.98v74.64l35,26.5,40.05.06h.06c22.09,0,40.06-17.97,40.06-40.06,0-11.59-4.94-22.04-12.82-29.38Zm-27.7,2.69c0,18.96-15.37,34.31-34.34,34.28l-34.34-.05V5.98l34.34.05c18.96.03,34.34,15.43,34.34,34.39h0Z"/>
      <g>
        <g>
          <path class="cls-1" d="m208.45,37.09l-4.86-3.49c-7.58-5.44-17.5-6.24-25.9-2.11-8.37,4.12-13.56,12.11-13.87,21.35,0,.09,0,.47,0,.96v4.47c0,16.4,14.34,29.5,31.14,27.43,14.14-1.75,24.49-14.27,24.49-28.52V11.07h-10.99v26.01Zm0,20.84c0,9.22-7.38,16.75-16.54,17-9.41.25-17.12-7.87-17.12-17.29v-1.22c0-.24,0-2.81,0-3.18.18-5.14,3.07-9.57,7.74-11.87,4.82-2.38,10.3-1.94,14.65,1.18l9.92,7.11c.85.61,1.35,1.58,1.35,2.62v5.66Z"/>
          <path class="cls-1" d="m252.85,29.03c-14.49.67-26.42,12.59-27.09,27.09-.75,16.33,12.27,29.81,28.43,29.81,11.74,0,21.82-7.11,26.17-17.26h-12.76c-3.21,3.84-8.03,6.29-13.41,6.29-8.26,0-15.17-5.76-16.99-13.47h45.14c.19-1.32.32-2.65.32-4.02,0-16.16-13.48-29.18-29.81-28.43Zm-15.7,24.57c1.76-7.56,8.57-13.39,16.54-13.62,8.53-.24,15.75,5.67,17.55,13.62h-34.08Z"/>
          <path class="cls-1" d="m316.87,77.63c-.24.73-.91,1.22-1.68,1.22h-2.21c-.77,0-1.44-.49-1.68-1.22l-14.17-48.8h-12.46l15.76,53.64c.68,2.06,2.59,3.44,4.75,3.44h17.81c2.17,0,4.08-1.38,4.75-3.44l15.7-53.48h-12.46l-14.12,48.65Z"/>
        </g>
        <path class="cls-1" d="m537.68,29.06c-14.14,1.75-24.49,14.27-24.49,28.52v46.11h10.99v-26.01l4.86,3.49c7.58,5.44,17.5,6.24,25.9,2.11,8.37-4.12,13.56-12.11,13.87-21.35,0-.09,0-.47,0-.96v-4.47c0-16.4-14.34-29.5-31.14-27.43Zm20.16,29.29c0,.24,0,2.81,0,3.18-.18,5.14-3.07,9.57-7.74,11.87-4.82,2.38-10.3,1.94-14.65-1.18l-9.92-7.11c-.85-.61-1.35-1.58-1.35-2.62v-5.66c0-9.22,7.38-16.75,16.54-17,9.41-.25,17.12,7.87,17.12,17.29v1.22Zm-163.88,2.82c1.53,2,2.3,4.64,2.3,7.91,0,2.24-.4,4.2-1.21,5.88-.81,1.76-1.9,3.28-3.27,4.56-2.5,2.32-5.69,4-9.57,5.04-3.96.96-7.75,1.44-11.39,1.44s-7.35-.52-11.14-1.56c-3.79-1.04-6.94-2.72-9.45-5.04-1.37-1.28-2.42-2.76-3.15-4.44-.81-1.76-1.21-3.72-1.21-5.88h12.35c.08,2.64,1.45,4.52,4.12,5.64,2.66,1.2,5.49,1.8,8.48,1.8,3.23,0,6.22-.56,8.96-1.68,2.67-1.12,4-2.84,4-5.16,0-1.52-.48-2.72-1.45-3.6-1.05-.96-2.42-1.72-4.12-2.28-3.07-1.04-6.86-1.84-11.38-2.4-4.44-.56-8.44-1.72-11.99-3.48-2.34-1.12-4.24-2.68-5.69-4.68-1.53-2-2.3-4.64-2.3-7.91,0-3.76,1.29-6.84,3.88-9.23,2.5-2.4,5.45-4.16,8.84-5.28,1.86-.64,3.75-1.12,5.69-1.44,1.94-.32,3.79-.48,5.57-.48s3.51.16,5.45.48c1.94.32,3.79.84,5.57,1.56,3.47,1.28,6.46,3.24,8.96,5.88,2.59,2.64,3.88,6.04,3.88,10.19h-12.48c0-2.48-1.13-4.52-3.39-6.12-2.26-1.68-4.93-2.52-7.99-2.52-3.23,0-5.93.64-8.12,1.92-2.26,1.28-3.39,2.96-3.39,5.04,0,2.72,1.62,4.48,4.85,5.28,3.23.88,6.94,1.64,11.14,2.28,2.26.4,4.52.88,6.78,1.44,2.18.48,4.24,1.2,6.18,2.16,2.34,1.12,4.24,2.68,5.69,4.68Zm83.33-32.15c-14.49.67-26.42,12.59-27.09,27.09-.75,16.33,12.27,29.81,28.43,29.81,11.74,0,21.82-7.11,26.17-17.26h-12.76c-3.21,3.84-8.03,6.29-13.41,6.29-8.26,0-15.17-5.76-17-13.47h45.14c.19-1.32.32-2.65.32-4.02,0-16.16-13.48-29.18-29.81-28.43Zm-15.7,24.57c1.76-7.56,8.57-13.39,16.54-13.62,8.53-.24,15.75,5.67,17.55,13.62h-34.08Zm-27.65,6.92h11.08v5.11c0,12.64-11.61,22.61-24.72,19.82-10.2-2.17-17.23-11.6-17.23-22.02V10.51h11.08v17.9h24.32v11.08h-24.32v24.1c0,4.39,2.44,8.55,6.45,10.34,6.76,3,13.33-1.9,13.33-8.3v-5.11Z"/>
      </g>
    </g>
  </g>
</svg>